<?xml version="1.0" encoding="UTF-8"?>
<svg xmlns="http://www.w3.org/2000/svg" width="527" height="347" viewBox="213 172 527 347" fill="none" role="img" aria-labelledby="mars-title mars-description" color-interpolation="sRGB" shape-rendering="geometricPrecision">
<title id="mars-title">MARS — Managed Action Runner System</title>
<desc id="mars-description">Vector reconstruction of the supplied MARS logo: an orange-to-purple and blue folded M, a red circular planet, and outlined navy lettering. Transparent background; all visible elements are vector paths, geometric shapes and gradients.</desc>
<defs>
<linearGradient id="left-leg-gradient" gradientUnits="userSpaceOnUse" x1="352.207" y1="372.411" x2="234.777" y2="457.040">
  <stop offset="0.00" stop-color="#992b3e"/>
  <stop offset="0.20" stop-color="#be3a3f"/>
  <stop offset="0.40" stop-color="#d74940"/>
  <stop offset="0.60" stop-color="#e45944"/>
  <stop offset="0.80" stop-color="#e66a46"/>
  <stop offset="1.00" stop-color="#e7794b"/>
</linearGradient>
<linearGradient id="right-leg-gradient" gradientUnits="userSpaceOnUse" x1="571.691" y1="367.850" x2="677.381" y2="465.887">
  <stop offset="0.00" stop-color="#091958"/>
  <stop offset="0.20" stop-color="#0e216e"/>
  <stop offset="0.40" stop-color="#12298b"/>
  <stop offset="0.60" stop-color="#1835a5"/>
  <stop offset="0.80" stop-color="#1c40bf"/>
  <stop offset="1.00" stop-color="#224fd6"/>
</linearGradient>
<linearGradient id="blue-ribbon-gradient" gradientUnits="userSpaceOnUse" x1="593.015" y1="253.804" x2="503.495" y2="377.427">
  <stop offset="0.00" stop-color="#445de3"/>
  <stop offset="0.20" stop-color="#3c4ed5"/>
  <stop offset="0.40" stop-color="#3742c7"/>
  <stop offset="0.60" stop-color="#3338b5"/>
  <stop offset="0.80" stop-color="#2d2ea1"/>
  <stop offset="1.00" stop-color="#252484"/>
</linearGradient>
<linearGradient id="warm-ribbon-gradient" gradientUnits="userSpaceOnUse" x1="308.199" y1="274.039" x2="496.516" y2="429.153">
  <stop offset="0.00" stop-color="#e77d4e"/>
  <stop offset="0.20" stop-color="#e66a49"/>
  <stop offset="0.40" stop-color="#e55748"/>
  <stop offset="0.60" stop-color="#d2484e"/>
  <stop offset="0.80" stop-color="#ac3b60"/>
  <stop offset="1.00" stop-color="#7b337c"/>
</linearGradient>
<linearGradient id="planet-gradient" gradientUnits="userSpaceOnUse" x1="673.518" y1="203.066" x2="682.046" y2="264.994">
  <stop offset="0.00" stop-color="#e25f4a"/>
  <stop offset="0.20" stop-color="#e35a47"/>
  <stop offset="0.40" stop-color="#e25245"/>
  <stop offset="0.60" stop-color="#dc4c45"/>
  <stop offset="0.80" stop-color="#ce4344"/>
  <stop offset="1.00" stop-color="#c13e44"/>
</linearGradient>
<clipPath id="ribbon-silhouette" clipPathUnits="userSpaceOnUse">
  <path d="M310,263
 C315.4,248.1 327.3,239.9 342.4,239.9
 C352.3,239.9 360.4,243.5 368.9,252.3
 L459,346.2 L549.4,251.6
 C556.9,243.8 565.5,239.7 575.6,239.9
 C590.2,239.9 602.3,248.5 607.4,261.9
 L677.6,449.9
 C685.8,471.8 670.9,494.2 648.5,494.8
 C635,495.4 623.7,491.7 614.7,480.3
 L541.3,389.1 L482,451.5
 C469.1,465 448.1,465.3 434.3,452.1
 L375,389.1 L303,480.3
 C294.5,491.1 283.7,495.1 270.5,494.8
 C248,494.3 231.5,473.5 239.1,450.4
 Z"/>
</clipPath>
</defs>
<g id="mars-symbol" aria-label="MARS ribbon symbol">
  <g clip-path="url(#ribbon-silhouette)">
    <path id="warm-underfold" d="M310,263
 C315.4,248.1 327.3,239.9 342.4,239.9
 C352.3,239.9 360.4,243.5 368.9,252.3
 L459,346.2 L549.4,251.6
 C556.9,243.8 565.5,239.7 575.6,239.9
 C590.2,239.9 602.3,248.5 607.4,261.9
 L677.6,449.9
 C685.8,471.8 670.9,494.2 648.5,494.8
 C635,495.4 623.7,491.7 614.7,480.3
 L541.3,389.1 L482,451.5
 C469.1,465 448.1,465.3 434.3,452.1
 L375,389.1 L303,480.3
 C294.5,491.1 283.7,495.1 270.5,494.8
 C248,494.3 231.5,473.5 239.1,450.4
 Z" fill="url(#left-leg-gradient)"/>
    <path id="blue-underfold" d="M457,220 H700 V510 H457 Z" fill="url(#right-leg-gradient)"/>
    <path id="blue-ribbon" d="M458,347.2 L549.4,251.6
 C556.9,243.8 565.5,239.7 575.6,239.9
 C590.2,239.9 602.3,248.5 607.4,261.9
 L619.2,293.5
 C623.2,308.2 611.6,321.8 601,332.6
 L541.2,389.7
 C520.5,396.7 497,386.2 479.7,369.1 Z" fill="url(#blue-ribbon-gradient)"/>
    <path id="warm-ribbon" d="M286.8,324.2
 C309,322 326.4,338.2 342.6,355.1
 L434.3,452.1
 C448.1,465.3 469.1,465 482,451.5
 L541.3,389.1
 C520.5,395.8 497.4,385.2 480.3,368.4
 L368.9,252.3
 C360.4,243.5 352.3,239.9 342.4,239.9
 C327.3,239.9 315.4,248.1 310,263 Z" fill="url(#warm-ribbon-gradient)"/>
  </g>
  <circle id="mars-planet" cx="678.25" cy="234.5" r="37.25" fill="url(#planet-gradient)"/>
</g>

</svg>
